<svg id="图层_1" data-name="图层 1" xmlns="http://www.w3.org/2000/svg" viewBox="0 0 156 36"><defs><style>.cls-1{fill:#231815;}.cls-2{fill:#fbcd4a;fill-rule:evenodd;}.cls-3{fill:#e59e00;}.cls-4{fill:#e50012;}</style></defs><title>画板 1</title><path class="cls-1" d="M61.26,33.08v-5a.12.12,0,0,0-.08-.11h-.06L61,28l-4.43,3.17H55L50.59,28l-.08,0h-.06a.12.12,0,0,0-.07.11v5H48.06V25.54h2.73l5,3.63a.14.14,0,0,0,.08,0,.15.15,0,0,0,.08,0l4.91-3.63h2.74v7.54Z"/><path class="cls-1" d="M65.59,33.08V25.54H81V27H68a.13.13,0,0,0-.13.12v1.37a.13.13,0,0,0,.13.12H81V30H68a.13.13,0,0,0-.13.12v1.34a.13.13,0,0,0,.13.12H81v1.5Z"/><path class="cls-1" d="M96.66,33.08l-11.14-5h-.05l-.07,0a.12.12,0,0,0-.06.1v4.87H83V25.54h1.68l11.26,5.09H96l.07,0a.12.12,0,0,0,.06-.1v-5h2.31v7.54Z"/><path class="cls-1" d="M100.46,33.08V25.54h15.1V27H102.91a.13.13,0,0,0-.13.12v4.3a.13.13,0,0,0,.13.12h10.21a.13.13,0,0,0,.13-.12V30.11a.13.13,0,0,0-.13-.12h-6.69V28.65h9.14v4.43Z"/><rect class="cls-1" x="147.63" y="25.54" width="2.32" height="7.54"/><path class="cls-1" d="M143.38,33.08V31.69a.13.13,0,0,0-.13-.12h-8.6a.14.14,0,0,0-.11.05l-1.16,1.46h-2.71l6-7.54h9v7.54Zm-5.11-6a.13.13,0,0,0-.11.05l-2.26,2.82a.11.11,0,0,0,0,.13.14.14,0,0,0,.12.06h7.23a.13.13,0,0,0,.13-.12V27.16a.13.13,0,0,0-.13-.12Z"/><path class="cls-1" d="M133.88,25.54H117.58V27h6.27a.13.13,0,0,1,.13.12v5.92h2.31V27.16a.13.13,0,0,1,.14-.12h6.25Z"/><path class="cls-1" d="M131.24,3.56,129.75,5h18V19.66c0,.43-.47.64-1,.64H129V3.56h-2.24V21.74h20.59a2.59,2.59,0,0,0,1.83-.69,2.26,2.26,0,0,0,.75-1.74V3.56Z"/><path class="cls-1" d="M142.49,7.2H130.62V8.71h11.82v8a.61.61,0,0,1-.68.69h-3.05v1.45h3.58a2.23,2.23,0,0,0,1.69-.75,2.63,2.63,0,0,0,.7-1.87V8.71h1.42V7.2h-1.42V5.78Z"/><polygon class="cls-1" points="136.4 9.71 130.97 18.84 133.57 18.84 139.01 9.71 136.4 9.71"/><path class="cls-1" d="M101.05,11.88a2.64,2.64,0,0,0,.7,1.87,2.23,2.23,0,0,0,1.69.75h20V13h-8.58V11.59h8.58V10.13h-8.58V8.71h8.58V7.26h-8.58V5.77h8.58V4.32h-8.58V2.88l-2.2,1.44H104V2.88L100.3,6.5V8.67l.76-.73Zm11.56-4.62H104V8.71h8.58v1.42H104v1.45h8.58V13H104a.61.61,0,0,1-.68-.69V5.78h9.32Z"/><polygon class="cls-1" points="124.18 15.84 113.36 15.84 113.36 15.17 111.12 15.17 111.12 15.84 100.3 15.84 100.3 17.29 103.98 17.29 101.05 21.74 103.7 21.74 106.63 17.29 111.12 17.29 111.12 21.74 113.36 21.74 113.36 17.29 117.84 17.29 120.78 21.74 123.43 21.74 120.49 17.29 124.18 17.29 124.18 15.84"/><polygon class="cls-1" points="67.47 4.32 67.47 2.88 65.27 4.32 54.79 4.32 54.79 2.88 52.59 4.32 48.06 4.32 48.06 5.77 71.94 5.77 71.94 4.32 67.47 4.32"/><polygon class="cls-1" points="48.06 7.25 48.06 7.97 48.06 10.86 50.3 10.86 50.3 7.97 69.7 7.97 69.7 10.86 71.94 10.86 71.94 7.97 71.94 7.25 71.94 6.52 48.06 6.52 48.06 7.25"/><rect class="cls-1" x="48.06" y="11.6" width="23.88" height="1.45"/><path class="cls-1" d="M63,13.8,48.06,15.16v1.45l12.68-1.2v4.2a.61.61,0,0,1-.68.69h-.79v1.45h1.32A2.23,2.23,0,0,0,62.28,21a2.63,2.63,0,0,0,.7-1.87Z"/><rect class="cls-1" x="51.79" y="9.02" width="16.43" height="1.45"/><path class="cls-1" d="M64.1,14.94a.88.88,0,0,0,.09,1c.27.32,5.1,5.81,5.1,5.81h2.65l-5.1-5.8h5.1V14.49h-6.7C64.59,14.49,64.27,14.6,64.1,14.94Z"/><polygon class="cls-1" points="48.06 18.91 58.52 17.77 58.52 16.32 48.06 17.46 48.06 18.91"/><polygon class="cls-1" points="48.06 21.23 58.52 20.09 58.52 18.64 48.06 19.78 48.06 21.23"/><path class="cls-1" d="M95.2,15.7l-1.38-1.49-3.36.61a1.6,1.6,0,0,0-1.13.93,2.15,2.15,0,0,0-.08.43c-.05.64.69,1.19.86,1.3l7,4.28V19.42L92,16.47Z"/><path class="cls-1" d="M83,16.18a2.16,2.16,0,0,0-.08-.43,1.6,1.6,0,0,0-1.14-.93l-3.36-.61L77.06,15.7l3.18.77-5.08,2.95h0v2.34l7.06-4.28C82.32,17.37,83.07,16.82,83,16.18Z"/><path class="cls-1" d="M85,19.61a.61.61,0,0,1-.68.69H82.78v1.45h2.27A2.23,2.23,0,0,0,86.75,21a2.63,2.63,0,0,0,.7-1.87V14H85Z"/><polygon class="cls-1" points="98.07 5.77 98.07 4.32 85.38 4.32 86.3 3.22 83.65 3.22 82.73 4.32 74.19 4.32 74.19 5.77 81.51 5.77 79.98 7.58 74.19 7.58 74.19 9.04 78.77 9.04 77.24 10.85 74.19 10.85 74.19 12.3 76.02 12.3 74.19 14.49 74.19 17.45 78.67 12.3 93.53 12.3 98.07 17.41 98.06 14.49 96.18 12.3 98.07 12.3 98.07 10.85 79.89 10.85 81.42 9.04 98.07 9.04 98.07 7.58 82.64 7.58 84.16 5.77 98.07 5.77"/><path class="cls-2" d="M40.51,18a17,17,0,1,0-17,17A17.06,17.06,0,0,0,40.51,18Z"/><path class="cls-3" d="M29.67,2.12A43.72,43.72,0,0,1,23.8,19,57,57,0,0,1,13.38,31.69a17.12,17.12,0,0,0,5.31,2.63,56.68,56.68,0,0,0,9.89-12.6A53.9,53.9,0,0,0,34.67,5.15,16.92,16.92,0,0,0,29.67,2.12Zm-13.17.34A17,17,0,0,0,6.46,18a17.28,17.28,0,0,0,.18,2.49,33.8,33.8,0,0,0,6-7.79A36.21,36.21,0,0,0,16.49,2.45Zm9.36-1.33C25.4,1.06,24.94,1,24.47,1h-.21l-.77,0-.86,0h-.1a17.19,17.19,0,0,0-2.24.28,42.45,42.45,0,0,1-4.61,13.21,38.57,38.57,0,0,1-7.93,10,17.06,17.06,0,0,0,2.89,4.68,45.14,45.14,0,0,0,9.82-11.9A44.61,44.61,0,0,0,25.85,1.12Z"/><path class="cls-4" d="M30.47,2.45a36,36,0,0,0,3.81,10.23,33.73,33.73,0,0,0,6,7.79,17,17,0,0,0-9.85-18ZM23.09,19A43.79,43.79,0,0,1,17.23,2.14a17,17,0,0,0-5,3.06,53.8,53.8,0,0,0,6.07,16.51,56.67,56.67,0,0,0,9.9,12.62,16.87,16.87,0,0,0,5.32-2.62A57.63,57.63,0,0,1,23.09,19ZM31,14.47A42.35,42.35,0,0,1,26.37,1.2,18.55,18.55,0,0,0,24.43,1h-.11l-.84,0-.82,0h-.14a16,16,0,0,0-1.7.18,44.74,44.74,0,0,0,5.41,16.08,45.19,45.19,0,0,0,10,12,17.16,17.16,0,0,0,2.94-4.63A38.28,38.28,0,0,1,31,14.47Z"/></svg>